<svg width="214" height="187" viewBox="0 0 214 187" fill="none" xmlns="http://www.w3.org/2000/svg">
<path d="M190.562 60.6952C187.835 59.2073 186.596 60.4463 185.583 59.2073C184.571 57.9683 188.31 54.7435 180.871 51.5188C180.871 51.5188 180.378 44.577 170.212 44.3281C160.045 44.0792 162.811 51.2754 160.045 53.0067C157.28 54.738 156.572 52.0166 153.845 53.7534C151.118 55.4903 152.357 58.9584 150.128 59.4562C147.899 59.954 144.923 57.2437 142.196 58.9584C139.469 60.6731 139.469 62.1832 138.224 62.1832C136.98 62.1832 134.507 61.193 133.019 62.1832C131.531 63.1733 129.795 64.3957 129.795 64.3957H192.547C192.547 64.3957 193.294 62.1832 190.562 60.6952Z" fill="#BA68C8"/>
<path opacity="0.5" d="M190.562 60.6952C187.835 59.2073 186.596 60.4463 185.583 59.2073C184.571 57.9683 188.31 54.7435 180.871 51.5188C180.871 51.5188 180.378 44.577 170.212 44.3281C160.045 44.0792 162.811 51.2754 160.045 53.0067C157.28 54.738 156.572 52.0166 153.845 53.7534C151.118 55.4903 152.357 58.9584 150.128 59.4562C147.899 59.954 144.923 57.2437 142.196 58.9584C139.469 60.6731 139.469 62.1832 138.224 62.1832C136.98 62.1832 134.507 61.193 133.019 62.1832C131.531 63.1733 129.795 64.3957 129.795 64.3957H192.547C192.547 64.3957 193.294 62.1832 190.562 60.6952Z" fill="#BA68C8"/>
<path d="M95.5888 28.9788C93.9737 28.0993 93.238 28.8349 92.6517 28.0993C92.0654 27.3636 94.2668 25.4553 89.886 23.5415C89.886 23.5415 89.5929 19.4262 83.5693 19.2824C77.5457 19.1386 79.1442 23.3977 77.5457 24.4265C75.9471 25.4553 75.488 23.8402 73.8674 24.8635C72.2467 25.8868 72.9879 27.9499 71.6548 28.2486C70.3218 28.5473 68.5684 26.9211 66.9532 27.9499C65.3381 28.9788 65.3381 29.8638 64.6024 29.8638C63.8668 29.8638 62.3899 29.2719 61.5159 29.8638C60.642 30.4556 59.6076 31.1858 59.6076 31.1858H96.767C96.767 31.1858 97.2095 29.8804 95.5888 28.9788Z" fill="#BA68C8"/>
<path opacity="0.5" d="M95.5888 28.9788C93.9737 28.0993 93.238 28.8349 92.6517 28.0993C92.0654 27.3636 94.2668 25.4553 89.886 23.5415C89.886 23.5415 89.5929 19.4262 83.5693 19.2824C77.5457 19.1386 79.1442 23.3977 77.5457 24.4265C75.9471 25.4553 75.488 23.8402 73.8674 24.8635C72.2467 25.8868 72.9879 27.9499 71.6548 28.2486C70.3218 28.5473 68.5684 26.9211 66.9532 27.9499C65.3381 28.9788 65.3381 29.8638 64.6024 29.8638C63.8668 29.8638 62.3899 29.2719 61.5159 29.8638C60.642 30.4556 59.6076 31.1858 59.6076 31.1858H96.767C96.767 31.1858 97.2095 29.8804 95.5888 28.9788Z" fill="#BA68C8"/>
<path d="M118.251 151.514C113.604 148.975 111.491 151.088 109.799 148.975C108.106 146.862 114.445 141.375 101.773 135.882C101.773 135.882 100.927 124.051 83.6081 123.631C66.2895 123.21 70.9303 135.457 66.284 138.416C61.6377 141.375 60.371 136.723 55.7247 139.682C51.0784 142.642 53.1858 148.533 49.3858 149.401C45.5858 150.269 40.5357 145.595 35.8673 148.555C31.1989 151.514 31.221 154.047 29.108 154.047C26.9951 154.047 22.7692 152.355 20.2579 154.047C17.7467 155.74 14.7654 157.847 14.7654 157.847H121.63C121.63 157.847 122.897 154.047 118.251 151.514Z" fill="#BA68C8"/>
<path opacity="0.5" d="M118.251 151.514C113.604 148.975 111.491 151.088 109.799 148.975C108.106 146.862 114.445 141.375 101.773 135.882C101.773 135.882 100.927 124.051 83.6081 123.631C66.2895 123.21 70.9303 135.457 66.284 138.416C61.6377 141.375 60.371 136.723 55.7247 139.682C51.0784 142.642 53.1858 148.533 49.3858 149.401C45.5858 150.269 40.5357 145.595 35.8673 148.555C31.1989 151.514 31.221 154.047 29.108 154.047C26.9951 154.047 22.7692 152.355 20.2579 154.047C17.7467 155.74 14.7654 157.847 14.7654 157.847H121.63C121.63 157.847 122.897 154.047 118.251 151.514Z" fill="#BA68C8"/>
<g opacity="0.5">
<path opacity="0.5" d="M190.562 60.6952C187.835 59.2073 186.596 60.4463 185.583 59.2073C184.571 57.9683 188.31 54.7435 180.871 51.5188C180.871 51.5188 180.378 44.577 170.212 44.3281C160.045 44.0792 162.811 51.2754 160.045 53.0067C157.28 54.738 156.572 52.0166 153.845 53.7534C151.118 55.4903 152.357 58.9584 150.128 59.4562C147.899 59.954 144.923 57.2437 142.196 58.9584C139.469 60.6731 139.469 62.1832 138.224 62.1832C136.98 62.1832 134.507 61.193 133.019 62.1832C131.531 63.1733 129.795 64.3957 129.795 64.3957H192.547C192.547 64.3957 193.294 62.1832 190.562 60.6952Z" fill="white"/>
<path opacity="0.5" d="M190.562 60.6952C187.835 59.2073 186.596 60.4463 185.583 59.2073C184.571 57.9683 188.31 54.7435 180.871 51.5188C180.871 51.5188 180.378 44.577 170.212 44.3281C160.045 44.0792 162.811 51.2754 160.045 53.0067C157.28 54.738 156.572 52.0166 153.845 53.7534C151.118 55.4903 152.357 58.9584 150.128 59.4562C147.899 59.954 144.923 57.2437 142.196 58.9584C139.469 60.6731 139.469 62.1832 138.224 62.1832C136.98 62.1832 134.507 61.193 133.019 62.1832C131.531 63.1733 129.795 64.3957 129.795 64.3957H192.547C192.547 64.3957 193.294 62.1832 190.562 60.6952Z" fill="white"/>
</g>
<g opacity="0.5">
<path opacity="0.5" d="M95.5888 28.9788C93.9737 28.0993 93.238 28.8349 92.6517 28.0993C92.0654 27.3636 94.2668 25.4553 89.886 23.5415C89.886 23.5415 89.5929 19.4262 83.5693 19.2824C77.5457 19.1386 79.1442 23.3977 77.5457 24.4265C75.9471 25.4553 75.488 23.8402 73.8674 24.8635C72.2467 25.8868 72.9879 27.9499 71.6548 28.2486C70.3218 28.5473 68.5684 26.9211 66.9532 27.9499C65.3381 28.9788 65.3381 29.8638 64.6024 29.8638C63.8668 29.8638 62.3899 29.2719 61.5159 29.8638C60.642 30.4556 59.6076 31.1858 59.6076 31.1858H96.767C96.767 31.1858 97.2095 29.8804 95.5888 28.9788Z" fill="white"/>
<path opacity="0.5" d="M95.5888 28.9788C93.9737 28.0993 93.238 28.8349 92.6517 28.0993C92.0654 27.3636 94.2668 25.4553 89.886 23.5415C89.886 23.5415 89.5929 19.4262 83.5693 19.2824C77.5457 19.1386 79.1442 23.3977 77.5457 24.4265C75.9471 25.4553 75.488 23.8402 73.8674 24.8635C72.2467 25.8868 72.9879 27.9499 71.6548 28.2486C70.3218 28.5473 68.5684 26.9211 66.9532 27.9499C65.3381 28.9788 65.3381 29.8638 64.6024 29.8638C63.8668 29.8638 62.3899 29.2719 61.5159 29.8638C60.642 30.4556 59.6076 31.1858 59.6076 31.1858H96.767C96.767 31.1858 97.2095 29.8804 95.5888 28.9788Z" fill="white"/>
</g>
<g opacity="0.5">
<path opacity="0.5" d="M118.251 151.514C113.604 148.975 111.491 151.088 109.799 148.975C108.106 146.862 114.445 141.375 101.773 135.882C101.773 135.882 100.927 124.051 83.6081 123.631C66.2895 123.21 70.9303 135.457 66.284 138.416C61.6377 141.375 60.371 136.723 55.7247 139.682C51.0784 142.642 53.1858 148.533 49.3858 149.401C45.5858 150.269 40.5357 145.595 35.8673 148.555C31.1989 151.514 31.221 154.047 29.108 154.047C26.9951 154.047 22.7692 152.355 20.2579 154.047C17.7467 155.74 14.7654 157.847 14.7654 157.847H121.63C121.63 157.847 122.897 154.047 118.251 151.514Z" fill="white"/>
<path opacity="0.5" d="M118.251 151.514C113.604 148.975 111.491 151.088 109.799 148.975C108.106 146.862 114.445 141.375 101.773 135.882C101.773 135.882 100.927 124.051 83.6081 123.631C66.2895 123.21 70.9303 135.457 66.284 138.416C61.6377 141.375 60.371 136.723 55.7247 139.682C51.0784 142.642 53.1858 148.533 49.3858 149.401C45.5858 150.269 40.5357 145.595 35.8673 148.555C31.1989 151.514 31.221 154.047 29.108 154.047C26.9951 154.047 22.7692 152.355 20.2579 154.047C17.7467 155.74 14.7654 157.847 14.7654 157.847H121.63C121.63 157.847 122.897 154.047 118.251 151.514Z" fill="white"/>
</g>
<path d="M40.1651 133.498C40.1651 133.498 37.4326 131.103 34.6061 130.285C31.7796 129.466 28.5217 129.45 25.7062 128.681C22.8908 127.912 21.2093 127.265 21.2093 127.265L21.0655 129.809L40.0489 134.937L53.0364 131.341L54.3308 128.703C52.9156 129.362 51.4314 129.861 49.9057 130.191C47.0792 130.86 43.9153 130.86 42.1619 131.535C40.4085 132.21 40.1651 133.498 40.1651 133.498Z" fill="white" stroke="#263238" stroke-linecap="round" stroke-linejoin="round"/>
<path d="M20.7998 127.84C24.5106 128.975 28.3143 129.78 32.1666 130.246C35.0641 130.639 37.8153 131.758 40.1649 133.498C42.0761 132.277 44.2763 131.582 46.5425 131.485C49.2683 131.279 51.9573 130.73 54.5463 129.853L53.7332 131.513L39.7832 134.245L20.5122 129.212L20.7998 127.84Z" fill="white" stroke="#263238" stroke-linecap="round" stroke-linejoin="round"/>
<path d="M20.2744 128.415C23.2228 129.545 26.3122 130.265 29.4563 130.556C34.5894 130.943 40.0211 133.498 40.0211 133.498C42.1221 132.439 44.4287 131.85 46.7804 131.773C49.4197 131.75 52.0455 131.395 54.5962 130.716C54.5167 130.981 54.4968 131.26 54.5379 131.534C54.579 131.807 54.6801 132.068 54.834 132.298L39.9714 135.462L20.1748 129.709L20.2744 128.415Z" fill="white" stroke="#263238" stroke-linecap="round" stroke-linejoin="round"/>
<path d="M20.031 129.472L39.3518 134.312V134.975L40.978 135.02V134.256L55.2654 131.999C55.2654 131.999 55.8905 131.856 55.3595 132.553C54.8284 133.25 45.6299 141.281 45.6299 141.281L35.4191 142.332L19.9314 138.93L20.031 129.472Z" fill="#BA68C8"/>
<path opacity="0.3" d="M39.3519 134.986V134.312L20.0311 129.472L19.937 138.963L35.4192 142.365L35.6958 142.338L39.7834 134.997L39.3519 134.986Z" fill="black"/>
<path d="M20.031 129.472L39.3518 134.312V134.975L40.978 135.02V134.256L55.2654 131.999C55.2654 131.999 55.8905 131.856 55.3595 132.553C54.8284 133.25 45.6299 141.281 45.6299 141.281L35.4191 142.332L19.9314 138.93L20.031 129.472Z" stroke="#263238" stroke-linecap="round" stroke-linejoin="round"/>
<path d="M39.352 134.986L35.0818 142.365L35.9004 142.415L40.9782 135.031L39.352 134.986Z" fill="#BA68C8" stroke="#263238" stroke-linecap="round" stroke-linejoin="round"/>
<path d="M38.6661 179.973C38.6661 179.973 37.7368 181.92 36.4978 182.81C35.2588 183.701 33.6769 184.121 32.4268 184.978C31.7478 185.438 31.0975 185.938 30.4798 186.477L29.9819 184.785L38.3563 179.016L45.2981 179.856L46.3712 181.472C45.5957 181.209 44.7881 181.053 43.9706 181.007C42.4827 180.902 40.9395 181.289 39.9604 181.051C39.6783 180.978 39.4159 180.844 39.1921 180.657C38.9683 180.471 38.7886 180.237 38.6661 179.973Z" fill="white" stroke="#263238" stroke-linecap="round" stroke-linejoin="round"/>
<path d="M30.1753 186.14C31.7662 184.943 33.4906 183.936 35.3139 183.137C36.7235 182.442 37.8914 181.34 38.6659 179.973C39.7263 180.525 40.9373 180.719 42.1174 180.526C43.5066 180.335 44.9179 180.376 46.2935 180.647L45.6132 179.613L38.3561 179.502L29.8047 185.238L30.1753 186.14Z" fill="white" stroke="#263238" stroke-linecap="round" stroke-linejoin="round"/>
<path d="M29.8214 185.819C31.0319 184.727 32.4274 183.86 33.9422 183.258C36.376 182.373 38.5996 179.989 38.5996 179.989C39.7393 180.434 40.9811 180.551 42.1839 180.326C43.49 180.021 44.8387 179.94 46.1719 180.089C46.0045 179.746 45.9522 179.358 46.0226 178.982L38.2456 178.673L29.5559 184.962L29.8214 185.819Z" fill="white" stroke="#263238" stroke-linecap="round" stroke-linejoin="round"/>
<path d="M29.506 185.139L38.1128 179.519L37.9966 179.071L38.7876 178.839L38.9148 179.353L46.2604 179.132C46.2604 179.132 46.5867 179.132 46.2106 178.733C45.8345 178.335 40.0155 174.037 40.0155 174.037L34.8548 174.59L27.8743 178.767L29.506 185.139Z" fill="#BA68C8"/>
<path opacity="0.3" d="M38.0188 179.071L38.135 179.519L29.5283 185.139L27.8799 178.75L34.8604 174.574L34.9987 174.557L38.229 179.01L38.0188 179.071Z" fill="black"/>
<path d="M29.506 185.139L38.1128 179.519L37.9966 179.071L38.7876 178.839L38.9148 179.353L46.2604 179.132C46.2604 179.132 46.5867 179.132 46.2106 178.733C45.8345 178.335 40.0155 174.037 40.0155 174.037L34.8548 174.59L27.8743 178.767L29.506 185.139Z" stroke="#263238" stroke-linecap="round" stroke-linejoin="round"/>
<path d="M38.0188 179.071L34.7 174.613L35.0872 174.48L38.8098 178.839L38.0188 179.071Z" fill="#BA68C8" stroke="#263238" stroke-linecap="round" stroke-linejoin="round"/>
<path d="M167.357 120.433L182.978 136.253L149.624 145.651L147.417 129.792L167.357 120.433Z" fill="#BA68C8" stroke="#263238" stroke-linecap="round" stroke-linejoin="round"/>
<path d="M181.18 138.537L146.681 148.676L149.464 130.445L166.871 122.679L181.18 138.537Z" fill="white" stroke="#263238" stroke-linecap="round" stroke-linejoin="round"/>
<path d="M167.689 123.664L180.522 140.258L148.153 149.655L151.914 129.709L167.689 123.664Z" fill="white"/>
<path opacity="0.17" d="M167.689 123.664L180.522 140.258L148.153 149.655L151.914 129.709L167.689 123.664Z" fill="black"/>
<path d="M167.689 123.664L180.522 140.258L148.153 149.655L151.914 129.709L167.689 123.664Z" stroke="#263238" stroke-linecap="round" stroke-linejoin="round"/>
<path d="M167.689 123.664L161.804 144.096L138.832 151.049L147.66 132.243L167.689 123.664Z" fill="white" stroke="#263238" stroke-linecap="round" stroke-linejoin="round"/>
<path d="M160.172 142.465L138.019 149.904L137.361 146.796L157.882 139.439L160.172 142.465Z" fill="white" stroke="#263238" stroke-linecap="round" stroke-linejoin="round"/>
<path d="M167.12 120.882L181.833 136.17L181.18 138.538L167.689 123.664L160.172 142.465L157.882 139.439L167.12 120.882Z" fill="white" stroke="#263238" stroke-linecap="round" stroke-linejoin="round"/>
<path d="M167.357 120.433L157.965 140.014L136.299 147.371L147.417 129.792L167.357 120.433Z" fill="#BA68C8"/>
<path opacity="0.3" d="M167.357 120.433L157.965 140.014L136.299 147.371L147.417 129.792L167.357 120.433Z" fill="black"/>
<path d="M167.357 120.433L157.965 140.014L136.299 147.371L147.417 129.792L167.357 120.433Z" stroke="#263238" stroke-linecap="round" stroke-linejoin="round"/>
<path d="M146.521 131.596L163.95 123.642" stroke="#263238" stroke-linecap="round" stroke-linejoin="round"/>
<path d="M94.7868 177.279L110.783 157.598L77.7835 156.05L75.1562 172.583L94.7868 177.279Z" fill="#BA68C8" stroke="#263238" stroke-linecap="round" stroke-linejoin="round"/>
<path d="M109.052 155.718L74.9293 153.699L77.2082 171.438L94.3608 175.133L109.052 155.718Z" fill="white" stroke="#263238" stroke-linecap="round" stroke-linejoin="round"/>
<path d="M95.2015 173.943L108.443 154.136L76.4227 152.355L79.6364 171.593L95.2015 173.943Z" fill="white"/>
<path opacity="0.17" d="M95.2015 173.943L108.443 154.136L76.4227 152.355L79.6364 171.593L95.2015 173.943Z" fill="black"/>
<path d="M95.2015 173.943L108.443 154.136L76.4227 152.355L79.6364 171.593L95.2015 173.943Z" stroke="#263238" stroke-linecap="round" stroke-linejoin="round"/>
<path d="M95.2015 173.943L89.8859 154.717L67.1688 153.173L75.4658 170.049L95.2015 173.943Z" fill="white" stroke="#263238" stroke-linecap="round" stroke-linejoin="round"/>
<path d="M88.21 156.758L66.3226 154.523L65.5869 157.814L85.8481 160.353L88.21 156.758Z" fill="white" stroke="#263238" stroke-linecap="round" stroke-linejoin="round"/>
<path d="M94.5545 176.886L109.638 157.952L109.052 155.718L95.2017 173.943L88.2101 156.758L85.8482 160.353L94.5545 176.886Z" fill="white" stroke="#263238" stroke-linecap="round" stroke-linejoin="round"/>
<path d="M94.7867 177.279L85.9422 159.756L64.5415 157.488L75.1561 172.583L94.7867 177.279Z" fill="#BA68C8"/>
<path opacity="0.3" d="M94.7867 177.279L85.9422 159.756L64.5415 157.488L75.1561 172.583L94.7867 177.279Z" fill="black"/>
<path d="M94.7867 177.279L85.9421 159.756L64.5415 157.488L75.1561 172.583L94.7867 177.279Z" stroke="#263238" stroke-linecap="round" stroke-linejoin="round"/>
<path d="M73.5244 170.403L90.9536 174.071" stroke="#263238" stroke-linecap="round" stroke-linejoin="round"/>
<path d="M107.757 44.9423C107.757 44.9423 100.511 48.4436 97.613 52.6861C94.7146 56.9286 95.5609 64.761 100.025 67.2943C104.488 69.8276 120.07 79.1313 131.061 77.8038C142.052 76.4763 140.359 65.2422 134.806 60.7729C129.252 56.3036 121.763 52.321 121.763 52.321C121.763 52.321 121.403 49.9094 120.916 49.0631C120.43 48.2168 114.882 42.7684 107.757 44.9423Z" fill="#263238" stroke="#263238" stroke-linecap="round" stroke-linejoin="round"/>
<path d="M137.173 63.4167C120.723 58.3832 109.887 67.3938 106.491 70.8453C113.294 74.3798 123.317 78.7219 131.061 77.7871C140.254 76.6753 140.569 68.6272 137.173 63.4167Z" fill="white" stroke="#263238" stroke-linecap="round" stroke-linejoin="round"/>
<path d="M125.989 62.0891C125.989 62.0891 135.652 69.8329 132.267 77.5436" stroke="#263238" stroke-linecap="round" stroke-linejoin="round"/>
<path d="M94.272 41.5681L90.4001 59.6278H93.5142L101.192 45.3957C101.192 45.3957 99.6927 40.8324 94.272 41.5681Z" fill="white" stroke="#263238" stroke-linecap="round" stroke-linejoin="round"/>
<path d="M142.937 32.8064C139.767 28.9345 135.58 25.3447 127.908 24.7307C127.908 24.7307 121.37 24.5261 112.476 28.3095C105.523 31.2632 98.0942 37.7127 94.2721 41.5846C97.6904 42.453 99.726 43.8525 101.197 45.4123C102.713 43.9686 104.035 42.713 105.008 41.922C108.283 39.2615 113.09 37.0157 113.09 37.0157C113.09 37.0157 107.874 44.1677 106.85 46.0097C105.827 47.8516 106.546 50.8164 111.961 51.635C117.376 52.4536 118.709 51.4304 120.856 50.2024C123.002 48.9744 125.662 47.8516 126.686 47.8516C128.73 47.9965 130.76 47.4082 132.41 46.1922C135.066 44.3503 136.194 39.1398 137.112 38.7305C137.743 38.4484 143.324 45.7276 147.671 51.1925L148.048 50.9989C149.939 50.0254 151.416 48.0397 152.428 46.2918C148.91 41.1532 144.989 35.3176 142.937 32.8064Z" fill="#BA68C8" stroke="#263238" stroke-linecap="round" stroke-linejoin="round"/>
<path d="M124.611 28.1658C124.611 28.1658 122.443 33.3818 126.785 35.3565" stroke="#263238" stroke-linecap="round" stroke-linejoin="round"/>
<path d="M113.09 36.9991L117.802 35.6052" stroke="#263238" stroke-linecap="round" stroke-linejoin="round"/>
<path d="M113.029 46.0981C113.029 46.0981 115.999 48.7199 122.952 45.7551" stroke="#263238" stroke-linecap="round" stroke-linejoin="round"/>
<path d="M140.16 36.7446C138.445 36.9714 137.112 38.7359 137.112 38.7359C139.091 38.3144 141.103 38.0682 143.125 38.0002" stroke="#263238" stroke-linecap="round" stroke-linejoin="round"/>
<path d="M113.245 37.4303C113.245 37.4303 116.436 37.4303 119.517 37.3145" stroke="#263238" stroke-linecap="round" stroke-linejoin="round"/>
<path d="M114.954 44.7263C114.954 44.7263 115.297 46.784 119.744 46.5517" stroke="#263238" stroke-linecap="round" stroke-linejoin="round"/>
<path d="M126.785 26.4676C126.785 26.4676 126.072 30.1459 126.58 32.0874C127.089 34.0289 128.931 36.2801 130.264 33.9293C131.597 31.5785 132.305 28.9511 132.305 27.6955C132.305 26.4399 127.703 24.1168 126.785 26.4676Z" fill="white" stroke="#263238" stroke-linecap="round" stroke-linejoin="round"/>
<path d="M137.112 21.8655C137.112 21.8655 139.972 21.2515 142.428 18.0821C144.884 14.9126 141.714 14.5088 140.691 11.4445C139.668 8.38014 143.269 9.3979 138.058 4.08231C132.848 -1.23328 124.357 0.608649 120.358 2.34548C116.359 4.08231 116.486 9.91231 113.615 10.3216C110.744 10.7309 109.522 7.97082 106.048 7.97082C102.575 7.97082 98.8908 11.6491 100.323 14.7135C101.756 17.7778 104.516 16.4559 104.721 15.9414C104.925 15.427 103.288 16.0465 103.183 14.5088C103.078 12.9711 106.861 13.7953 107.99 15.8419C108.902 17.5013 107.227 19.8576 107.282 21.6C107.398 25.0958 111.679 27.3304 114.428 27.8116C118.14 28.4588 122.653 28.232 126.016 26.3901C130.148 24.1223 128.229 19.4206 131.271 18.1927C134.313 16.9647 135.873 18.8067 135.873 18.8067L137.112 21.8655Z" fill="#263238" stroke="#263238" stroke-linecap="round" stroke-linejoin="round"/>
<path d="M105.866 9.86729C105.339 9.63901 104.759 9.55995 104.19 9.63879C103.622 9.71763 103.085 9.95132 102.641 10.3142" stroke="white" stroke-linecap="round" stroke-linejoin="round"/>
<path d="M133.146 12.7333C133.146 12.7333 133.146 6.64881 128.876 5.4098C124.606 4.17078 119.727 9.67997 117.26 13.1536C114.793 16.6273 111.176 15.7976 108.515 12.1359C108.265 11.7829 107.988 11.45 107.685 11.1402" stroke="white" stroke-linecap="round" stroke-linejoin="round"/>
<path d="M108.947 24.1444C111.159 25.566 112.819 25.9753 116.065 24.9575C119.312 23.9398 118.914 18.6518 121.757 15.8087C124.6 12.9656 129.689 13.9779 129.689 13.9779C129.689 13.9779 123.997 10.9246 119.522 14.177C115.048 17.4294 115.451 22.922 111.386 23.9398" stroke="white" stroke-linecap="round" stroke-linejoin="round"/>
<path d="M135.995 13.3637C135.995 13.3637 139.867 12.346 139.657 8.88892" stroke="white" stroke-linecap="round" stroke-linejoin="round"/>
<path d="M104 53C104 53 114.509 54.3275 119.82 57.9782" stroke="white" stroke-linecap="round" stroke-linejoin="round"/>
<path d="M133.777 14.6804C133.122 14.4926 132.427 14.4971 131.775 14.6933C131.123 14.8894 130.541 15.2689 130.098 15.7866C128.362 17.623 128.439 18.5523 126.99 19.6973C126.557 20.0751 126.013 20.3 125.44 20.337C124.867 20.374 124.298 20.2211 123.82 19.9019C123.206 19.5977 122.493 19.8024 122.288 21.2294C122.083 22.6565 124.025 23.7849 124.335 23.7849C124.643 23.8016 124.949 23.8367 125.253 23.89C125.253 23.89 125.253 26.4455 126.99 27.9776C128.727 29.5098 132.206 31.9657 134.557 31.4568C136.907 30.948 137.826 25.5273 137.826 22.7671C137.74 19.9685 137.188 17.2038 136.194 14.5863C135.475 12.9712 133.777 14.6804 133.777 14.6804Z" fill="white" stroke="#263238" stroke-linecap="round" stroke-linejoin="round"/>
<path d="M131.835 20.8919C131.835 21.4451 131.636 21.9208 131.382 21.9208C131.127 21.9208 130.923 21.4617 130.923 20.8919C130.923 20.3222 131.127 19.8687 131.382 19.8687C131.636 19.8687 131.835 20.3278 131.835 20.8919Z" fill="#263238"/>
<path d="M135.481 20.5489C135.481 21.1021 135.276 21.5778 135.027 21.5778C134.778 21.5778 134.568 21.1187 134.568 20.5489C134.568 19.9792 134.772 19.5256 135.027 19.5256C135.281 19.5256 135.481 19.9847 135.481 20.5489Z" fill="#263238"/>
<path d="M129.667 18.8161C129.667 18.8161 130.348 17.7954 132.062 18.2643" stroke="#263238" stroke-linecap="round" stroke-linejoin="round"/>
<path d="M133.998 18.2632C133.998 18.2632 135.137 17.0108 136.166 18.2632" stroke="#263238" stroke-linecap="round" stroke-linejoin="round"/>
<path d="M133.887 20.5491C133.887 20.5491 133.998 22.8335 134.684 22.8335C135.37 22.8335 135.137 23.8568 134.225 24.1997" stroke="#263238" stroke-linecap="round" stroke-linejoin="round"/>
<path d="M133.312 26.4841C133.312 26.4841 131.26 27.3968 130.463 25.3391" stroke="#263238" stroke-linecap="round" stroke-linejoin="round"/>
<path d="M133.793 76.974C133.793 76.974 122.178 66.7853 110.141 63.3172C98.1053 59.849 84.2549 61.4808 72.2243 58.2228C60.1937 54.9649 53.2685 50.479 53.2685 50.479L52.6545 61.2817L133.412 83.0972L188.658 67.8086L194.162 56.5966C194.162 56.5966 187.436 60.0592 175.405 62.9134C163.375 65.7675 149.895 65.762 142.345 68.5996C134.795 71.4371 133.793 76.974 133.793 76.974Z" fill="white" stroke="#263238" stroke-linecap="round" stroke-linejoin="round"/>
<path d="M51.4321 52.9182C51.4321 52.9182 64.9064 61.0769 95.2622 63.9311C115.258 65.8062 133.793 76.9739 133.793 76.9739C141.915 71.781 151.266 68.8271 160.897 68.4114C176.799 67.803 194.942 61.4807 194.942 61.4807L191.485 68.5995L132.162 80.2152L50.2097 58.8091L51.4321 52.9182Z" fill="white" stroke="#263238" stroke-linecap="round" stroke-linejoin="round"/>
<path d="M49.1918 55.3687C60.66 60.5484 72.9345 63.7143 85.4773 64.7276C107.287 66.3594 133.179 76.9574 133.179 76.9574C133.179 76.9574 146.836 69.6228 161.942 69.6228C173.162 69.5271 184.325 68.02 195.169 65.137C194.832 66.2637 194.748 67.4511 194.924 68.614C195.1 69.7769 195.531 70.8864 196.186 71.863L132.975 85.3318L48.7825 60.8557L49.1918 55.3687Z" fill="white" stroke="#263238" stroke-linecap="round" stroke-linejoin="round"/>
<path d="M49.6014 60.2085L130.325 80.4421V83.2962L137.256 83.5009V80.2153L198.007 70.6351C198.007 70.6351 200.656 70.0211 198.416 73.0799C196.176 76.1387 157.031 110.184 157.031 110.184L113.61 114.67L47.7595 100.217L48.1522 61.3259C48.1534 61.1495 48.1948 60.9758 48.2732 60.8178C48.3515 60.6598 48.4648 60.5217 48.6045 60.414C48.7442 60.3063 48.9065 60.2319 49.0793 60.1963C49.252 60.1607 49.4306 60.1649 49.6014 60.2085Z" fill="#BA68C8"/>
<path opacity="0.3" d="M130.325 83.2962V80.442L48.1686 59.8545L47.7648 100.216L113.61 114.692L114.788 114.57L132.167 83.3515L130.325 83.2962Z" fill="black"/>
<path d="M49.6014 60.2085L130.325 80.4421V83.2962L137.256 83.5009V80.2153L198.007 70.6351C198.007 70.6351 200.656 70.0211 198.416 73.0799C196.176 76.1387 157.031 110.184 157.031 110.184L113.61 114.67L47.7595 100.217L48.1522 61.3259C48.1534 61.1495 48.1948 60.9758 48.2732 60.8178C48.3515 60.6598 48.4648 60.5217 48.6045 60.414C48.7442 60.3063 48.9065 60.2319 49.0793 60.1963C49.252 60.1607 49.4306 60.1649 49.6014 60.2085Z" stroke="#263238" stroke-linecap="round" stroke-linejoin="round"/>
<path d="M130.325 83.2961L112.183 114.692L115.651 114.891L137.256 83.5008L130.325 83.2961Z" fill="#BA68C8" stroke="#263238" stroke-linecap="round" stroke-linejoin="round"/>
<path d="M190.876 71.9183C190.876 71.9183 196.291 72.9305 195.163 76.5425L198.415 73.0909C198.415 73.0909 199.903 71.2379 199.223 70.8784C198.543 70.5189 190.876 71.9183 190.876 71.9183Z" fill="#263238"/>
<path d="M57.0851 62.2606C57.0851 62.2606 49.4242 64.3791 48.235 70.104L48.1686 61.3259C48.1686 61.3259 48.4009 60.0039 49.6123 60.2196C50.8237 60.4353 57.0851 62.2606 57.0851 62.2606Z" fill="#263238"/>
<path d="M47.8367 97.5283L51.6865 101.196L47.7648 100.217L47.8367 97.5283Z" fill="#263238"/>
<path d="M154.259 110.444L159.481 107.877L156.732 110.261L154.259 110.444Z" fill="#263238"/>
<path d="M152.428 46.2974L167.12 63.9091L163.419 64.4954L147.671 51.2202C147.671 51.2202 151.748 48.5486 152.428 46.2974Z" fill="white" stroke="#263238" stroke-linecap="round" stroke-linejoin="round"/>
<path d="M87.2806 58.0126C87.2806 58.0126 86.545 57.1221 86.3569 57.9186C86.1689 58.7151 84.5039 61.4807 85.8038 61.6743C87.1036 61.8679 87.8393 58.7095 87.8393 58.7095L87.2806 58.0126Z" fill="white" stroke="#263238" stroke-linecap="round" stroke-linejoin="round"/>
<path d="M89.0395 57.9075C89.0395 57.9075 88.2983 57.017 88.1158 57.8079C87.9332 58.5989 86.2628 61.3701 87.5626 61.5692C88.8625 61.7683 89.6037 58.5989 89.6037 58.5989L89.0395 57.9075Z" fill="white" stroke="#263238" stroke-linecap="round" stroke-linejoin="round"/>
<path d="M90.804 57.8412C90.804 57.8412 89.9245 56.8511 89.6977 57.7306C89.4709 58.6101 87.4852 61.6855 89.0395 61.9067C90.5938 62.128 91.4566 58.5879 91.4566 58.5879L90.804 57.8412Z" fill="white" stroke="#263238" stroke-linecap="round" stroke-linejoin="round"/>
<path d="M92.3418 58.1731L95.3066 61.0273H91.7942L92.3418 58.1731Z" fill="white" stroke="#263238" stroke-linecap="round" stroke-linejoin="round"/>
<path d="M92.3418 58.173C92.3418 58.173 91.4623 57.1829 91.2356 58.0624C91.0088 58.9418 89.023 62.0173 90.5773 62.233C92.1316 62.4487 92.9945 58.9142 92.9945 58.9142L92.3418 58.173Z" fill="white" stroke="#263238" stroke-linecap="round" stroke-linejoin="round"/>
<path d="M171.108 60.734C171.108 60.734 171.7 59.7383 172.009 60.4906C172.319 61.2428 174.393 63.7209 173.149 64.1191C171.904 64.5174 170.671 61.5084 170.671 61.5084L171.108 60.734Z" fill="white" stroke="#263238" stroke-linecap="round" stroke-linejoin="round"/>
<path d="M169.371 60.9C169.371 60.9 169.963 59.9043 170.272 60.6566C170.582 61.4089 172.662 63.8869 171.412 64.2851C170.162 64.6834 168.934 61.6744 168.934 61.6744L169.371 60.9Z" fill="white" stroke="#263238" stroke-linecap="round" stroke-linejoin="round"/>
<path d="M167.623 61.1156C167.623 61.1156 168.336 60.0093 168.69 60.8335C169.044 61.6577 171.456 64.3956 169.996 64.8547C168.535 65.3138 167.092 61.9785 167.092 61.9785L167.623 61.1156Z" fill="white" stroke="#263238" stroke-linecap="round" stroke-linejoin="round"/>
<path d="M166.157 61.6853L163.674 64.9709L167.147 64.4178L166.157 61.6853Z" fill="white" stroke="#263238" stroke-linecap="round" stroke-linejoin="round"/>
<path d="M166.157 61.6854C166.157 61.6854 166.865 60.5791 167.225 61.4033C167.584 62.2275 169.99 64.9599 168.53 65.419C167.07 65.8781 165.626 62.5483 165.626 62.5483L166.157 61.6854Z" fill="white" stroke="#263238" stroke-linecap="round" stroke-linejoin="round"/>
<path d="M65.3877 91.228L68.9278 90.6749L65.3877 90.1217C65.076 90.0745 64.7876 89.9288 64.5646 89.7058C64.3417 89.4829 64.1959 89.1945 64.1487 88.8827L63.5956 85.3372L63.0424 88.8827C62.9955 89.1937 62.8506 89.4815 62.6287 89.7044C62.4069 89.9272 62.1197 90.0734 61.809 90.1217L58.2634 90.6749L61.809 91.228C62.1187 91.2787 62.4045 91.4257 62.6259 91.6482C62.8474 91.8706 62.9931 92.1571 63.0424 92.467L63.5956 96.0126L64.1487 92.467C64.1984 92.1563 64.3449 91.8692 64.5674 91.6467C64.7899 91.4242 65.077 91.2777 65.3877 91.228Z" fill="white"/>
<path d="M38.9424 115.245L42.488 114.692L38.9424 114.139C38.632 114.088 38.3454 113.941 38.123 113.719C37.9007 113.497 37.7539 113.21 37.7034 112.9L37.1503 109.354L36.5971 112.9C36.5491 113.211 36.4031 113.499 36.1803 113.722C35.9575 113.945 35.6695 114.091 35.3581 114.139L31.8125 114.692L35.3581 115.245C35.6695 115.293 35.9575 115.439 36.1803 115.662C36.4031 115.885 36.5491 116.173 36.5971 116.484L37.1503 120.03L37.7034 116.484C37.7539 116.174 37.9007 115.887 38.123 115.665C38.3454 115.442 38.632 115.295 38.9424 115.245Z" fill="#BA68C8"/>
<path opacity="0.5" d="M38.9424 115.245L42.488 114.692L38.9424 114.139C38.632 114.088 38.3454 113.941 38.123 113.719C37.9007 113.497 37.7539 113.21 37.7034 112.9L37.1503 109.354L36.5971 112.9C36.5491 113.211 36.4031 113.499 36.1803 113.722C35.9575 113.945 35.6695 114.091 35.3581 114.139L31.8125 114.692L35.3581 115.245C35.6695 115.293 35.9575 115.439 36.1803 115.662C36.4031 115.885 36.5491 116.173 36.5971 116.484L37.1503 120.03L37.7034 116.484C37.7539 116.174 37.9007 115.887 38.123 115.665C38.3454 115.442 38.632 115.295 38.9424 115.245Z" fill="white"/>
<path d="M127.222 130.03L130.768 129.477L127.222 128.924C126.912 128.876 126.624 128.731 126.402 128.509C126.179 128.288 126.033 128.001 125.983 127.69L125.43 124.145L124.877 127.69C124.828 128.001 124.682 128.288 124.459 128.509C124.236 128.731 123.949 128.876 123.638 128.924L120.093 129.477L123.638 130.03C123.949 130.078 124.236 130.223 124.459 130.445C124.682 130.667 124.828 130.953 124.877 131.264L125.43 134.809L125.983 131.264C126.033 130.953 126.179 130.667 126.402 130.445C126.624 130.223 126.912 130.078 127.222 130.03Z" fill="#BA68C8"/>
<path opacity="0.5" d="M127.222 130.03L130.768 129.477L127.222 128.924C126.912 128.876 126.624 128.731 126.402 128.509C126.179 128.288 126.033 128.001 125.983 127.69L125.43 124.145L124.877 127.69C124.828 128.001 124.682 128.288 124.459 128.509C124.236 128.731 123.949 128.876 123.638 128.924L120.093 129.477L123.638 130.03C123.949 130.078 124.236 130.223 124.459 130.445C124.682 130.667 124.828 130.953 124.877 131.264L125.43 134.809L125.983 131.264C126.033 130.953 126.179 130.667 126.402 130.445C126.624 130.223 126.912 130.078 127.222 130.03Z" fill="white"/>
<path d="M34.4069 96.3832L36.7521 96.0126L34.4069 95.642C34.2011 95.6103 34.0108 95.5139 33.8636 95.3667C33.7164 95.2195 33.6199 95.0292 33.5882 94.8234L33.2232 92.4836L32.8526 94.8234C32.8209 95.0292 32.7244 95.2195 32.5772 95.3667C32.43 95.5139 32.2397 95.6103 32.0339 95.642L29.6887 96.0126L32.0339 96.3832C32.2397 96.4149 32.43 96.5114 32.5772 96.6586C32.7244 96.8058 32.8209 96.9961 32.8526 97.2019L33.2232 99.5416L33.5882 97.2019C33.6199 96.9961 33.7164 96.8058 33.8636 96.6586C34.0108 96.5114 34.2011 96.4149 34.4069 96.3832Z" fill="#BA68C8"/>
<path opacity="0.5" d="M34.4069 96.3832L36.7521 96.0126L34.4069 95.642C34.2011 95.6103 34.0108 95.5139 33.8636 95.3667C33.7164 95.2195 33.6199 95.0292 33.5882 94.8234L33.2232 92.4836L32.8526 94.8234C32.8209 95.0292 32.7244 95.2195 32.5772 95.3667C32.43 95.5139 32.2397 95.6103 32.0339 95.642L29.6887 96.0126L32.0339 96.3832C32.2397 96.4149 32.43 96.5114 32.5772 96.6586C32.7244 96.8058 32.8209 96.9961 32.8526 97.2019L33.2232 99.5416L33.5882 97.2019C33.6199 96.9961 33.7164 96.8058 33.8636 96.6586C34.0108 96.5114 34.2011 96.4149 34.4069 96.3832Z" fill="white"/>
<path d="M186.551 101.561L188.896 101.196L186.551 100.825C186.346 100.792 186.156 100.696 186.009 100.549C185.862 100.402 185.765 100.212 185.732 100.006L185.362 97.661L184.997 100.006C184.964 100.212 184.868 100.402 184.72 100.549C184.573 100.696 184.384 100.792 184.178 100.825L181.833 101.196L184.178 101.561C184.384 101.593 184.573 101.69 184.72 101.837C184.868 101.984 184.964 102.174 184.997 102.379L185.362 104.724L185.732 102.379C185.765 102.174 185.862 101.984 186.009 101.837C186.156 101.69 186.346 101.593 186.551 101.561Z" fill="#BA68C8"/>
<path opacity="0.5" d="M186.551 101.561L188.896 101.196L186.551 100.825C186.346 100.792 186.156 100.696 186.009 100.549C185.862 100.402 185.765 100.212 185.732 100.006L185.362 97.661L184.997 100.006C184.964 100.212 184.868 100.402 184.72 100.549C184.573 100.696 184.384 100.792 184.178 100.825L181.833 101.196L184.178 101.561C184.384 101.593 184.573 101.69 184.72 101.837C184.868 101.984 184.964 102.174 184.997 102.379L185.362 104.724L185.732 102.379C185.765 102.174 185.862 101.984 186.009 101.837C186.156 101.69 186.346 101.593 186.551 101.561Z" fill="white"/>
<path d="M79.3708 82.0682L81.6663 81.7087L79.3708 81.3492C79.1694 81.3176 78.9832 81.223 78.8391 81.0788C78.695 80.9347 78.6003 80.7485 78.5688 80.5471L78.2037 78.2461L77.8442 80.5471C77.8119 80.7482 77.7169 80.9339 77.5729 81.0779C77.4289 81.2219 77.2432 81.3168 77.0421 81.3492L74.7411 81.7087L77.0421 82.0682C77.2432 82.1006 77.4289 82.1955 77.5729 82.3395C77.7169 82.4835 77.8119 82.6692 77.8442 82.8703L78.1816 85.1934L78.5467 82.8924C78.575 82.6838 78.6709 82.4902 78.8198 82.3414C78.9687 82.1925 79.1622 82.0966 79.3708 82.0682Z" fill="white"/>
<path d="M155.421 104.78L157.722 104.415L155.421 104.055C155.22 104.023 155.034 103.928 154.89 103.784C154.746 103.64 154.651 103.454 154.619 103.253L154.259 100.952L153.9 103.253C153.867 103.454 153.772 103.64 153.628 103.784C153.484 103.928 153.299 104.023 153.098 104.055L150.797 104.415L153.098 104.78C153.299 104.811 153.485 104.906 153.629 105.05C153.774 105.194 153.868 105.38 153.9 105.582L154.259 107.877L154.619 105.582C154.65 105.38 154.745 105.194 154.889 105.05C155.033 104.906 155.219 104.811 155.421 104.78Z" fill="white"/>
</svg>
