<svg width="26" height="24" viewBox="0 0 26 24" fill="none" xmlns="http://www.w3.org/2000/svg">
<g clip-path="url(#clip0_2617_26807)">
<path d="M9.66295 6.51451C9.08259 7.40439 8.42001 8.7247 7.67522 10.4754C7.46243 10.0402 7.28348 9.68955 7.13839 9.42355C6.9933 9.15755 6.79743 8.85045 6.55078 8.50223C6.30413 8.15402 6.05748 7.88077 5.81083 7.68248C5.56417 7.48419 5.25949 7.31492 4.89676 7.17466C4.53404 7.03441 4.13988 6.96429 3.71429 6.96429H0.464286C0.328869 6.96429 0.217634 6.92076 0.13058 6.8337C0.0435268 6.74665 0 6.63542 0 6.5V3.71429C0 3.57887 0.0435268 3.46763 0.13058 3.38058C0.217634 3.29353 0.328869 3.25 0.464286 3.25H3.71429C6.13244 3.25 8.11533 4.33817 9.66295 6.51451ZM26 18.1071C26 18.2426 25.9565 18.3538 25.8694 18.4408L21.2266 23.0837C21.1395 23.1708 21.0283 23.2143 20.8929 23.2143C20.7671 23.2143 20.6583 23.1683 20.5664 23.0765C20.4745 22.9846 20.4286 22.8757 20.4286 22.75V19.9643C20.119 19.9643 19.708 19.9667 19.1953 19.9715C18.6827 19.9764 18.2909 19.9812 18.0201 19.986C17.7493 19.9909 17.3962 19.986 16.9609 19.9715C16.5257 19.957 16.1823 19.9328 15.9308 19.899C15.6793 19.8651 15.3698 19.8144 15.0022 19.7467C14.6347 19.6789 14.33 19.5895 14.0882 19.4782C13.8464 19.367 13.5658 19.2292 13.2467 19.0647C12.9275 18.9003 12.6421 18.7068 12.3906 18.4844C12.1391 18.2619 11.8731 18.0032 11.5926 17.7081C11.3121 17.4131 11.0413 17.077 10.7801 16.6998C11.3508 15.8002 12.0086 14.4799 12.7533 12.7388C12.9661 13.1741 13.1451 13.5247 13.2902 13.7907C13.4353 14.0567 13.6311 14.3638 13.8778 14.7121C14.1244 15.0603 14.3711 15.3335 14.6177 15.5318C14.8644 15.7301 15.1691 15.8994 15.5318 16.0396C15.8945 16.1799 16.2887 16.25 16.7143 16.25H20.4286V13.4643C20.4286 13.3289 20.4721 13.2176 20.5592 13.1306C20.6462 13.0435 20.7574 13 20.8929 13C21.0089 13 21.125 13.0484 21.2411 13.1451L25.8694 17.7734C25.9565 17.8605 26 17.9717 26 18.1071ZM26 5.10714C26 5.24256 25.9565 5.35379 25.8694 5.44085L21.2266 10.0837C21.1395 10.1708 21.0283 10.2143 20.8929 10.2143C20.7671 10.2143 20.6583 10.1683 20.5664 10.0765C20.4745 9.98456 20.4286 9.87574 20.4286 9.75V6.96429H16.7143C16.25 6.96429 15.8292 7.03683 15.452 7.18192C15.0748 7.32701 14.7411 7.54464 14.4509 7.83482C14.1607 8.125 13.9141 8.42243 13.7109 8.72712C13.5078 9.03181 13.2902 9.40662 13.058 9.85156C12.7485 10.4513 12.3713 11.2783 11.9263 12.3326C11.6458 12.971 11.4064 13.5078 11.2081 13.9431C11.0099 14.3783 10.7487 14.8862 10.4247 15.4665C10.1006 16.0469 9.79111 16.5305 9.49609 16.9174C9.20108 17.3043 8.84319 17.7057 8.42243 18.1217C8.00167 18.5376 7.56641 18.8689 7.11663 19.1155C6.66685 19.3622 6.15179 19.5653 5.57143 19.7249C4.99107 19.8845 4.37202 19.9643 3.71429 19.9643H0.464286C0.328869 19.9643 0.217634 19.9208 0.13058 19.8337C0.0435268 19.7467 0 19.6354 0 19.5V16.7143C0 16.5789 0.0435268 16.4676 0.13058 16.3806C0.217634 16.2935 0.328869 16.25 0.464286 16.25H3.71429C4.17857 16.25 4.59933 16.1775 4.97656 16.0324C5.35379 15.8873 5.6875 15.6696 5.97768 15.3795C6.26786 15.0893 6.51451 14.7919 6.71763 14.4872C6.92076 14.1825 7.13839 13.8077 7.37054 13.3627C7.68006 12.763 8.05729 11.936 8.50223 10.8817C8.78274 10.2433 9.02213 9.70647 9.22042 9.2712C9.41871 8.83594 9.67987 8.32812 10.0039 7.74777C10.3279 7.16741 10.6375 6.68378 10.9325 6.29688C11.2275 5.90997 11.5854 5.50856 12.0061 5.09263C12.4269 4.67671 12.8622 4.34542 13.3119 4.09877C13.7617 3.85212 14.2768 3.649 14.8571 3.4894C15.4375 3.3298 16.0565 3.25 16.7143 3.25H20.4286V0.464286C20.4286 0.328869 20.4721 0.217634 20.5592 0.13058C20.6462 0.0435268 20.7574 0 20.8929 0C21.0089 0 21.125 0.0483631 21.2411 0.145089L25.8694 4.77344C25.9565 4.86049 26 4.97173 26 5.10714Z" fill="white"/>
</g>
<defs>
<clipPath id="clip0_2617_26807">
<rect width="26" height="23.2143" fill="white"/>
</clipPath>
</defs>
</svg>
