<svg width="100" height="20" viewBox="0 0 100 20" fill="none" xmlns="http://www.w3.org/2000/svg">
<path d="M70.2092 20C69.045 20 68.0009 19.8086 67.0769 19.4259C66.1529 19.0249 65.4229 18.4782 64.887 17.7856C64.3511 17.0748 64.0554 16.2638 64 15.3525H66.6056C66.6796 16.0998 67.0307 16.7103 67.659 17.1842C68.3058 17.658 69.1466 17.895 70.1815 17.895C71.1424 17.895 71.9001 17.6854 72.4545 17.2662C73.0089 16.847 73.2861 16.3185 73.2861 15.6806C73.2861 15.0245 72.9904 14.5415 72.399 14.2317C71.8077 13.9036 70.8929 13.5847 69.6548 13.2748C68.5275 12.9832 67.6036 12.6916 66.8828 12.4C66.1806 12.0902 65.5708 11.6436 65.0533 11.0604C64.5544 10.459 64.3049 9.6753 64.3049 8.70935C64.3049 7.94388 64.5359 7.24221 64.9979 6.60432C65.4599 5.96643 66.1159 5.46523 66.966 5.10072C67.8161 4.71799 68.7863 4.52662 69.8766 4.52662C71.5582 4.52662 72.9165 4.9458 73.9513 5.78417C74.9862 6.62254 75.5406 7.77074 75.6145 9.22878H73.092C73.0366 8.44508 72.7132 7.81631 72.1219 7.34245C71.549 6.86859 70.7728 6.63165 69.7934 6.63165C68.8879 6.63165 68.1672 6.82302 67.6313 7.20576C67.0954 7.58849 66.8274 8.08969 66.8274 8.70935C66.8274 9.20144 66.9845 9.61151 67.2986 9.93957C67.6313 10.2494 68.0378 10.5046 68.5183 10.705C69.0173 10.8873 69.701 11.0969 70.5696 11.3338C71.6599 11.6254 72.5469 11.917 73.2306 12.2086C73.9144 12.482 74.4965 12.9012 74.977 13.4662C75.4759 14.0312 75.7346 14.7693 75.7531 15.6806C75.7531 16.5007 75.5221 17.2388 75.0601 17.895C74.5981 18.5511 73.9421 19.0705 73.092 19.4532C72.2605 19.8177 71.2995 20 70.2092 20Z" fill="#ABA7AF"/>
<path d="M80.4505 6.82302V15.6532C80.4505 16.3823 80.6076 16.9017 80.9217 17.2115C81.2359 17.5031 81.7811 17.6489 82.5572 17.6489H84.4144V19.754H82.1414C80.737 19.754 79.6836 19.435 78.9814 18.7971C78.2791 18.1592 77.928 17.1113 77.928 15.6532V6.82302H75.9599V4.77266H77.928V1H80.4505V4.77266H84.4144V6.82302H80.4505Z" fill="#ABA7AF"/>
<path d="M84.5879 12.2086C84.5879 10.6777 84.902 9.33813 85.5304 8.18993C86.1587 7.0235 87.018 6.12134 88.1083 5.48345C89.2171 4.84556 90.446 4.52662 91.795 4.52662C93.1255 4.52662 94.2805 4.80911 95.2599 5.3741C96.2394 5.93909 96.9693 6.64988 97.4498 7.50648V4.77266H100V19.754H97.4498V16.9655C96.9508 17.8403 96.2024 18.5693 95.2045 19.1525C94.2251 19.7175 93.0793 20 91.7673 20C90.4182 20 89.1986 19.6719 88.1083 19.0158C87.018 18.3597 86.1587 17.4393 85.5304 16.2547C84.902 15.07 84.5879 13.7213 84.5879 12.2086ZM97.4498 12.236C97.4498 11.106 97.2188 10.1218 96.7568 9.28345C96.2948 8.44508 95.6665 7.80719 94.8719 7.36978C94.0957 6.91415 93.2364 6.68633 92.2939 6.68633C91.3515 6.68633 90.4922 6.90504 89.716 7.34245C88.9399 7.77986 88.3208 8.41775 87.8588 9.25612C87.3968 10.0945 87.1658 11.0787 87.1658 12.2086C87.1658 13.3568 87.3968 14.3592 87.8588 15.2158C88.3208 16.0542 88.9399 16.7012 89.716 17.1568C90.4922 17.5942 91.3515 17.813 92.2939 17.813C93.2364 17.813 94.0957 17.5942 94.8719 17.1568C95.6665 16.7012 96.2948 16.0542 96.7568 15.2158C97.2188 14.3592 97.4498 13.3659 97.4498 12.236Z" fill="#ABA7AF"/>
<path d="M4.69381 6.97861C5.133 6.28342 5.76433 5.72192 6.58781 5.29412C7.41129 4.86631 8.35371 4.65241 9.41508 4.65241C10.6777 4.65241 11.8215 4.96435 12.8462 5.58823C13.871 6.21212 14.6762 7.10339 15.2618 8.26203C15.8656 9.42068 16.1676 10.7665 16.1676 12.2995C16.1676 13.8324 15.8656 15.1872 15.2618 16.3636C14.6762 17.5223 13.871 18.4225 12.8462 19.0642C11.8215 19.6881 10.6777 20 9.41508 20C8.33541 20 7.39299 19.795 6.58781 19.385C5.78263 18.9572 5.1513 18.3957 4.69381 17.7005V19.7861H0V0H4.69381V6.97861ZM11.3914 12.2995C11.3914 11.1586 11.062 10.2674 10.4032 9.62567C9.76277 8.96613 8.96674 8.63636 8.01517 8.63636C7.08189 8.63636 6.28587 8.96613 5.62709 9.62567C4.98661 10.2852 4.66637 11.1854 4.66637 12.3262C4.66637 13.467 4.98661 14.3672 5.62709 15.0267C6.28587 15.6863 7.08189 16.016 8.01517 16.016C8.94844 16.016 9.74447 15.6863 10.4032 15.0267C11.062 14.3494 11.3914 13.4403 11.3914 12.2995Z" fill="#4B3A5A"/>
<path d="M23.6807 20C22.1802 20 20.826 19.6881 19.6182 19.0642C18.4288 18.4403 17.4864 17.549 16.791 16.3904C16.1139 15.2317 15.7754 13.877 15.7754 12.3262C15.7754 10.7932 16.123 9.44741 16.8184 8.28877C17.5138 7.1123 18.4654 6.21212 19.6731 5.58823C20.8809 4.96435 22.2351 4.65241 23.7356 4.65241C25.2362 4.65241 26.5903 4.96435 27.7981 5.58823C29.0059 6.21212 29.9574 7.1123 30.6528 8.28877C31.3482 9.44741 31.6959 10.7932 31.6959 12.3262C31.6959 13.8592 31.3391 15.2139 30.6254 16.3904C29.93 17.549 28.9693 18.4403 27.7432 19.0642C26.5354 19.6881 25.1813 20 23.6807 20ZM23.6807 16.0428C24.5774 16.0428 25.3368 15.7219 25.959 15.0802C26.5995 14.4385 26.9197 13.5205 26.9197 12.3262C26.9197 11.1319 26.6086 10.2139 25.9865 9.57219C25.3826 8.93048 24.6323 8.60962 23.7356 8.60962C22.8207 8.60962 22.0612 8.93048 21.4573 9.57219C20.8535 10.1961 20.5515 11.1141 20.5515 12.3262C20.5515 13.5205 20.8443 14.4385 21.4299 15.0802C22.0338 15.7219 22.7841 16.0428 23.6807 16.0428Z" fill="#4B3A5A"/>
<path d="M39.2367 20C37.7362 20 36.382 19.6881 35.1742 19.0642C33.9848 18.4403 33.0423 17.549 32.347 16.3904C31.6699 15.2317 31.3313 13.877 31.3313 12.3262C31.3313 10.7932 31.679 9.44741 32.3744 8.28877C33.0698 7.1123 34.0214 6.21212 35.2291 5.58823C36.4369 4.96435 37.791 4.65241 39.2916 4.65241C40.7922 4.65241 42.1463 4.96435 43.3541 5.58823C44.5619 6.21212 45.5134 7.1123 46.2088 8.28877C46.9042 9.44741 47.2519 10.7932 47.2519 12.3262C47.2519 13.8592 46.895 15.2139 46.1814 16.3904C45.486 17.549 44.5253 18.4403 43.2992 19.0642C42.0914 19.6881 40.7373 20 39.2367 20ZM39.2367 16.0428C40.1334 16.0428 40.8928 15.7219 41.515 15.0802C42.1555 14.4385 42.4757 13.5205 42.4757 12.3262C42.4757 11.1319 42.1646 10.2139 41.5424 9.57219C40.9386 8.93048 40.1883 8.60962 39.2916 8.60962C38.3766 8.60962 37.6172 8.93048 37.0133 9.57219C36.4094 10.1961 36.1075 11.1141 36.1075 12.3262C36.1075 13.5205 36.4003 14.4385 36.9859 15.0802C37.5898 15.7219 38.34 16.0428 39.2367 16.0428Z" fill="#4B3A5A"/>
<path d="M57.1808 19.7861L52.5144 13.5294V19.7861H47.8206V0H52.5144V10.9358L57.1533 4.86631H62.9451L56.5769 12.3529L63 19.7861H57.1808Z" fill="#4B3A5A"/>
</svg>
